{
	"patcher" : 	{
		"fileversion" : 1,
		"appversion" : 		{
			"major" : 7,
			"minor" : 3,
			"revision" : 4,
			"architecture" : "x64",
			"modernui" : 1
		}
,
		"rect" : [ 243.0, 108.0, 398.0, 556.0 ],
		"bglocked" : 0,
		"openinpresentation" : 0,
		"default_fontsize" : 12.0,
		"default_fontface" : 0,
		"default_fontname" : "Arial",
		"gridonopen" : 1,
		"gridsize" : [ 15.0, 15.0 ],
		"gridsnaponopen" : 1,
		"objectsnaponopen" : 1,
		"statusbarvisible" : 2,
		"toolbarvisible" : 1,
		"lefttoolbarpinned" : 0,
		"toptoolbarpinned" : 0,
		"righttoolbarpinned" : 0,
		"bottomtoolbarpinned" : 0,
		"toolbars_unpinned_last_save" : 0,
		"tallnewobj" : 0,
		"boxanimatetime" : 200,
		"enablehscroll" : 1,
		"enablevscroll" : 1,
		"devicewidth" : 0.0,
		"description" : "",
		"digest" : "",
		"tags" : "",
		"style" : "",
		"subpatcher_template" : "",
		"boxes" : [ 			{
				"box" : 				{
					"bubble" : 1,
					"id" : "obj-7",
					"maxclass" : "comment",
					"numinlets" : 1,
					"numoutlets" : 0,
					"patching_rect" : [ 257.0, 400.0, 95.0, 24.0 ],
					"style" : "",
					"text" : "Debug"
				}

			}
, 			{
				"box" : 				{
					"id" : "obj-6",
					"maxclass" : "toggle",
					"numinlets" : 1,
					"numoutlets" : 1,
					"outlettype" : [ "int" ],
					"parameter_enable" : 0,
					"patching_rect" : [ 231.0, 400.0, 24.0, 24.0 ],
					"style" : ""
				}

			}
, 			{
				"box" : 				{
					"bubble" : 1,
					"bubbleside" : 2,
					"id" : "obj-5",
					"maxclass" : "comment",
					"numinlets" : 1,
					"numoutlets" : 0,
					"patching_rect" : [ 206.5, 257.0, 95.0, 39.0 ],
					"style" : "",
					"text" : "Enable looping"
				}

			}
, 			{
				"box" : 				{
					"bubble" : 1,
					"id" : "obj-3",
					"linecount" : 2,
					"maxclass" : "comment",
					"numinlets" : 1,
					"numoutlets" : 0,
					"patching_rect" : [ 124.0, 30.0, 150.0, 38.0 ],
					"style" : "",
					"text" : "Drop test signal file here, and wait..."
				}

			}
, 			{
				"box" : 				{
					"id" : "obj-1",
					"maxclass" : "newobj",
					"numinlets" : 2,
					"numoutlets" : 0,
					"patching_rect" : [ 89.0, 455.0, 161.0, 22.0 ],
					"style" : "",
					"text" : "SendEmpaticaSignalsToEiM"
				}

			}
, 			{
				"box" : 				{
					"id" : "obj-485",
					"maxclass" : "newobj",
					"numinlets" : 3,
					"numoutlets" : 1,
					"outlettype" : [ "" ],
					"patching_rect" : [ 89.0, 416.0, 40.0, 22.0 ],
					"style" : "",
					"text" : "join 3"
				}

			}
, 			{
				"box" : 				{
					"id" : "obj-472",
					"maxclass" : "newobj",
					"numinlets" : 1,
					"numoutlets" : 3,
					"outlettype" : [ "", "", "" ],
					"patching_rect" : [ 89.0, 376.0, 117.0, 22.0 ],
					"style" : "",
					"text" : "SplitEmpaticaSignal"
				}

			}
, 			{
				"box" : 				{
					"id" : "obj-470",
					"maxclass" : "newobj",
					"numinlets" : 3,
					"numoutlets" : 1,
					"outlettype" : [ "" ],
					"patcher" : 					{
						"fileversion" : 1,
						"appversion" : 						{
							"major" : 7,
							"minor" : 3,
							"revision" : 4,
							"architecture" : "x64",
							"modernui" : 1
						}
,
						"rect" : [ 1101.0, 143.0, 640.0, 480.0 ],
						"bglocked" : 0,
						"openinpresentation" : 0,
						"default_fontsize" : 12.0,
						"default_fontface" : 0,
						"default_fontname" : "Arial",
						"gridonopen" : 1,
						"gridsize" : [ 15.0, 15.0 ],
						"gridsnaponopen" : 1,
						"objectsnaponopen" : 1,
						"statusbarvisible" : 2,
						"toolbarvisible" : 1,
						"lefttoolbarpinned" : 0,
						"toptoolbarpinned" : 0,
						"righttoolbarpinned" : 0,
						"bottomtoolbarpinned" : 0,
						"toolbars_unpinned_last_save" : 0,
						"tallnewobj" : 0,
						"boxanimatetime" : 200,
						"enablehscroll" : 1,
						"enablevscroll" : 1,
						"devicewidth" : 0.0,
						"description" : "",
						"digest" : "",
						"tags" : "",
						"style" : "",
						"subpatcher_template" : "",
						"boxes" : [ 							{
								"box" : 								{
									"id" : "obj-2",
									"maxclass" : "number",
									"numinlets" : 1,
									"numoutlets" : 2,
									"outlettype" : [ "", "bang" ],
									"parameter_enable" : 0,
									"patching_rect" : [ 335.0, 426.0, 184.0, 22.0 ],
									"style" : ""
								}

							}
, 							{
								"box" : 								{
									"id" : "obj-465",
									"maxclass" : "newobj",
									"numinlets" : 1,
									"numoutlets" : 2,
									"outlettype" : [ "bang", "bang" ],
									"patching_rect" : [ 114.5, 108.055542, 29.5, 22.0 ],
									"style" : "",
									"text" : "b"
								}

							}
, 							{
								"box" : 								{
									"id" : "obj-464",
									"maxclass" : "newobj",
									"numinlets" : 1,
									"numoutlets" : 2,
									"outlettype" : [ "bang", "bang" ],
									"patching_rect" : [ 50.0, 108.055542, 29.5, 22.0 ],
									"style" : "",
									"text" : "b"
								}

							}
, 							{
								"box" : 								{
									"id" : "obj-456",
									"maxclass" : "newobj",
									"numinlets" : 2,
									"numoutlets" : 1,
									"outlettype" : [ "int" ],
									"patching_rect" : [ 286.5, 100.468933, 31.0, 22.0 ],
									"style" : "",
									"text" : "!= 1"
								}

							}
, 							{
								"box" : 								{
									"id" : "obj-452",
									"maxclass" : "toggle",
									"numinlets" : 1,
									"numoutlets" : 1,
									"outlettype" : [ "int" ],
									"parameter_enable" : 0,
									"patching_rect" : [ 290.0, 129.055542, 24.0, 24.0 ],
									"style" : ""
								}

							}
, 							{
								"box" : 								{
									"id" : "obj-453",
									"maxclass" : "newobj",
									"numinlets" : 2,
									"numoutlets" : 1,
									"outlettype" : [ "" ],
									"patching_rect" : [ 275.0, 175.055542, 34.0, 22.0 ],
									"style" : "",
									"text" : "gate"
								}

							}
, 							{
								"box" : 								{
									"id" : "obj-446",
									"maxclass" : "message",
									"numinlets" : 2,
									"numoutlets" : 1,
									"outlettype" : [ "" ],
									"patching_rect" : [ 114.5, 156.055542, 29.5, 22.0 ],
									"style" : "",
									"text" : "0"
								}

							}
, 							{
								"box" : 								{
									"id" : "obj-443",
									"maxclass" : "message",
									"numinlets" : 2,
									"numoutlets" : 1,
									"outlettype" : [ "" ],
									"patching_rect" : [ 50.0, 156.055542, 29.5, 22.0 ],
									"style" : "",
									"text" : "1"
								}

							}
, 							{
								"box" : 								{
									"id" : "obj-436",
									"maxclass" : "newobj",
									"numinlets" : 1,
									"numoutlets" : 2,
									"outlettype" : [ "bang", "bang" ],
									"patching_rect" : [ 50.0, 420.055542, 29.5, 22.0 ],
									"style" : "",
									"text" : "b"
								}

							}
, 							{
								"box" : 								{
									"id" : "obj-434",
									"maxclass" : "newobj",
									"numinlets" : 5,
									"numoutlets" : 4,
									"outlettype" : [ "int", "", "", "int" ],
									"patching_rect" : [ 157.0, 479.055542, 61.0, 22.0 ],
									"style" : "",
									"text" : "counter"
								}

							}
, 							{
								"box" : 								{
									"id" : "obj-429",
									"maxclass" : "message",
									"numinlets" : 2,
									"numoutlets" : 1,
									"outlettype" : [ "" ],
									"patching_rect" : [ 290.0, 279.055542, 43.0, 22.0 ],
									"style" : "",
									"text" : "length"
								}

							}
, 							{
								"box" : 								{
									"id" : "obj-427",
									"maxclass" : "newobj",
									"numinlets" : 1,
									"numoutlets" : 4,
									"outlettype" : [ "", "", "", "" ],
									"patching_rect" : [ 290.0, 316.055542, 129.0, 22.0 ],
									"saved_object_attributes" : 									{
										"embed" : 0
									}
,
									"style" : "",
									"text" : "coll testSignalsZeroed"
								}

							}
, 							{
								"box" : 								{
									"id" : "obj-426",
									"maxclass" : "newobj",
									"numinlets" : 2,
									"numoutlets" : 1,
									"outlettype" : [ "" ],
									"patching_rect" : [ 199.0, 175.055542, 34.0, 22.0 ],
									"style" : "",
									"text" : "gate"
								}

							}
, 							{
								"box" : 								{
									"id" : "obj-417",
									"maxclass" : "message",
									"numinlets" : 2,
									"numoutlets" : 1,
									"outlettype" : [ "" ],
									"patching_rect" : [ 114.5, 224.055542, 29.5, 22.0 ],
									"style" : "",
									"text" : "0"
								}

							}
, 							{
								"box" : 								{
									"id" : "obj-414",
									"maxclass" : "newobj",
									"numinlets" : 1,
									"numoutlets" : 4,
									"outlettype" : [ "", "", "", "" ],
									"patching_rect" : [ 50.0, 366.055542, 129.0, 22.0 ],
									"saved_object_attributes" : 									{
										"embed" : 0
									}
,
									"style" : "",
									"text" : "coll testSignalsZeroed"
								}

							}
, 							{
								"box" : 								{
									"id" : "obj-413",
									"maxclass" : "newobj",
									"numinlets" : 5,
									"numoutlets" : 4,
									"outlettype" : [ "int", "", "", "int" ],
									"patching_rect" : [ 50.0, 275.055542, 61.0, 22.0 ],
									"style" : "",
									"text" : "counter"
								}

							}
, 							{
								"box" : 								{
									"id" : "obj-410",
									"maxclass" : "newobj",
									"numinlets" : 2,
									"numoutlets" : 1,
									"outlettype" : [ "bang" ],
									"patching_rect" : [ 50.0, 224.055542, 51.0, 22.0 ],
									"style" : "",
									"text" : "metro 1"
								}

							}
, 							{
								"box" : 								{
									"comment" : "",
									"id" : "obj-466",
									"index" : 1,
									"maxclass" : "inlet",
									"numinlets" : 0,
									"numoutlets" : 1,
									"outlettype" : [ "" ],
									"patching_rect" : [ 50.0, 40.0, 30.0, 30.0 ],
									"style" : ""
								}

							}
, 							{
								"box" : 								{
									"comment" : "",
									"id" : "obj-467",
									"index" : 2,
									"maxclass" : "inlet",
									"numinlets" : 0,
									"numoutlets" : 1,
									"outlettype" : [ "" ],
									"patching_rect" : [ 114.5, 40.0, 30.0, 30.0 ],
									"style" : ""
								}

							}
, 							{
								"box" : 								{
									"comment" : "",
									"id" : "obj-468",
									"index" : 3,
									"maxclass" : "inlet",
									"numinlets" : 0,
									"numoutlets" : 1,
									"outlettype" : [ "int" ],
									"patching_rect" : [ 236.75, 40.0, 30.0, 30.0 ],
									"style" : ""
								}

							}
, 							{
								"box" : 								{
									"comment" : "",
									"id" : "obj-469",
									"index" : 1,
									"maxclass" : "outlet",
									"numinlets" : 1,
									"numoutlets" : 0,
									"patching_rect" : [ 50.0, 568.188843, 30.0, 30.0 ],
									"style" : ""
								}

							}
 ],
						"lines" : [ 							{
								"patchline" : 								{
									"destination" : [ "obj-413", 0 ],
									"source" : [ "obj-410", 0 ]
								}

							}
, 							{
								"patchline" : 								{
									"destination" : [ "obj-2", 0 ],
									"order" : 0,
									"source" : [ "obj-413", 0 ]
								}

							}
, 							{
								"patchline" : 								{
									"destination" : [ "obj-414", 0 ],
									"order" : 1,
									"source" : [ "obj-413", 0 ]
								}

							}
, 							{
								"patchline" : 								{
									"destination" : [ "obj-436", 0 ],
									"order" : 1,
									"source" : [ "obj-414", 0 ]
								}

							}
, 							{
								"patchline" : 								{
									"destination" : [ "obj-469", 0 ],
									"order" : 0,
									"source" : [ "obj-414", 0 ]
								}

							}
, 							{
								"patchline" : 								{
									"destination" : [ "obj-413", 3 ],
									"source" : [ "obj-417", 0 ]
								}

							}
, 							{
								"patchline" : 								{
									"destination" : [ "obj-417", 0 ],
									"source" : [ "obj-426", 0 ]
								}

							}
, 							{
								"patchline" : 								{
									"destination" : [ "obj-434", 4 ],
									"source" : [ "obj-427", 0 ]
								}

							}
, 							{
								"patchline" : 								{
									"destination" : [ "obj-427", 0 ],
									"source" : [ "obj-429", 0 ]
								}

							}
, 							{
								"patchline" : 								{
									"destination" : [ "obj-426", 1 ],
									"order" : 1,
									"source" : [ "obj-434", 2 ]
								}

							}
, 							{
								"patchline" : 								{
									"destination" : [ "obj-453", 1 ],
									"order" : 0,
									"source" : [ "obj-434", 2 ]
								}

							}
, 							{
								"patchline" : 								{
									"destination" : [ "obj-434", 0 ],
									"source" : [ "obj-436", 0 ]
								}

							}
, 							{
								"patchline" : 								{
									"destination" : [ "obj-410", 0 ],
									"order" : 1,
									"source" : [ "obj-443", 0 ]
								}

							}
, 							{
								"patchline" : 								{
									"destination" : [ "obj-429", 0 ],
									"order" : 0,
									"source" : [ "obj-443", 0 ]
								}

							}
, 							{
								"patchline" : 								{
									"destination" : [ "obj-410", 0 ],
									"order" : 1,
									"source" : [ "obj-446", 0 ]
								}

							}
, 							{
								"patchline" : 								{
									"destination" : [ "obj-417", 0 ],
									"order" : 0,
									"source" : [ "obj-446", 0 ]
								}

							}
, 							{
								"patchline" : 								{
									"destination" : [ "obj-453", 0 ],
									"source" : [ "obj-452", 0 ]
								}

							}
, 							{
								"patchline" : 								{
									"destination" : [ "obj-465", 0 ],
									"source" : [ "obj-453", 0 ]
								}

							}
, 							{
								"patchline" : 								{
									"destination" : [ "obj-452", 0 ],
									"source" : [ "obj-456", 0 ]
								}

							}
, 							{
								"patchline" : 								{
									"destination" : [ "obj-443", 0 ],
									"source" : [ "obj-464", 0 ]
								}

							}
, 							{
								"patchline" : 								{
									"destination" : [ "obj-446", 0 ],
									"source" : [ "obj-465", 0 ]
								}

							}
, 							{
								"patchline" : 								{
									"destination" : [ "obj-464", 0 ],
									"source" : [ "obj-466", 0 ]
								}

							}
, 							{
								"patchline" : 								{
									"destination" : [ "obj-465", 0 ],
									"source" : [ "obj-467", 0 ]
								}

							}
, 							{
								"patchline" : 								{
									"destination" : [ "obj-426", 0 ],
									"order" : 1,
									"source" : [ "obj-468", 0 ]
								}

							}
, 							{
								"patchline" : 								{
									"destination" : [ "obj-456", 0 ],
									"order" : 0,
									"source" : [ "obj-468", 0 ]
								}

							}
 ]
					}
,
					"patching_rect" : [ 89.0, 340.944458, 172.0, 22.0 ],
					"saved_object_attributes" : 					{
						"description" : "",
						"digest" : "",
						"globalpatchername" : "",
						"style" : "",
						"tags" : ""
					}
,
					"style" : "",
					"text" : "p PlaybackEmpaticaSignalFile"
				}

			}
, 			{
				"box" : 				{
					"id" : "obj-451",
					"maxclass" : "toggle",
					"numinlets" : 1,
					"numoutlets" : 1,
					"outlettype" : [ "int" ],
					"parameter_enable" : 0,
					"patching_rect" : [ 242.0, 298.0, 24.0, 24.0 ],
					"style" : ""
				}

			}
, 			{
				"box" : 				{
					"id" : "obj-444",
					"maxclass" : "message",
					"numinlets" : 2,
					"numoutlets" : 1,
					"outlettype" : [ "" ],
					"patching_rect" : [ 165.5, 298.0, 35.0, 22.0 ],
					"style" : "",
					"text" : "Stop"
				}

			}
, 			{
				"box" : 				{
					"id" : "obj-441",
					"maxclass" : "message",
					"numinlets" : 2,
					"numoutlets" : 1,
					"outlettype" : [ "" ],
					"patching_rect" : [ 89.0, 298.0, 36.0, 22.0 ],
					"style" : "",
					"text" : "Start"
				}

			}
, 			{
				"box" : 				{
					"id" : "obj-423",
					"maxclass" : "newobj",
					"numinlets" : 0,
					"numoutlets" : 0,
					"patcher" : 					{
						"fileversion" : 1,
						"appversion" : 						{
							"major" : 7,
							"minor" : 3,
							"revision" : 4,
							"architecture" : "x64",
							"modernui" : 1
						}
,
						"rect" : [ 0.0, 0.0, 640.0, 480.0 ],
						"bglocked" : 0,
						"openinpresentation" : 0,
						"default_fontsize" : 12.0,
						"default_fontface" : 0,
						"default_fontname" : "Arial",
						"gridonopen" : 1,
						"gridsize" : [ 15.0, 15.0 ],
						"gridsnaponopen" : 1,
						"objectsnaponopen" : 1,
						"statusbarvisible" : 2,
						"toolbarvisible" : 1,
						"lefttoolbarpinned" : 0,
						"toptoolbarpinned" : 0,
						"righttoolbarpinned" : 0,
						"bottomtoolbarpinned" : 0,
						"toolbars_unpinned_last_save" : 0,
						"tallnewobj" : 0,
						"boxanimatetime" : 200,
						"enablehscroll" : 1,
						"enablevscroll" : 1,
						"devicewidth" : 0.0,
						"description" : "",
						"digest" : "",
						"tags" : "",
						"style" : "",
						"subpatcher_template" : "",
						"boxes" : [ 							{
								"box" : 								{
									"id" : "obj-409",
									"maxclass" : "message",
									"numinlets" : 2,
									"numoutlets" : 1,
									"outlettype" : [ "" ],
									"patching_rect" : [ 838.0, 839.0, 29.5, 22.0 ],
									"style" : "",
									"text" : "0"
								}

							}
, 							{
								"box" : 								{
									"format" : 6,
									"id" : "obj-407",
									"maxclass" : "flonum",
									"numinlets" : 1,
									"numoutlets" : 2,
									"outlettype" : [ "", "bang" ],
									"parameter_enable" : 0,
									"patching_rect" : [ 146.75, 819.0, 191.0, 22.0 ],
									"style" : ""
								}

							}
, 							{
								"box" : 								{
									"id" : "obj-406",
									"maxclass" : "newobj",
									"numinlets" : 2,
									"numoutlets" : 1,
									"outlettype" : [ "float" ],
									"patching_rect" : [ 194.0, 738.0, 47.0, 22.0 ],
									"style" : "",
									"text" : "/ 1000."
								}

							}
, 							{
								"box" : 								{
									"id" : "obj-405",
									"maxclass" : "message",
									"numinlets" : 2,
									"numoutlets" : 1,
									"outlettype" : [ "" ],
									"patching_rect" : [ 413.0, 721.0, 29.5, 22.0 ],
									"style" : "",
									"text" : "0"
								}

							}
, 							{
								"box" : 								{
									"id" : "obj-403",
									"maxclass" : "newobj",
									"numinlets" : 1,
									"numoutlets" : 2,
									"outlettype" : [ "bang", "bang" ],
									"patching_rect" : [ 819.0, 894.0, 58.0, 22.0 ],
									"style" : "",
									"text" : "TogEdge"
								}

							}
, 							{
								"box" : 								{
									"id" : "obj-402",
									"maxclass" : "button",
									"numinlets" : 1,
									"numoutlets" : 1,
									"outlettype" : [ "bang" ],
									"patching_rect" : [ 706.0, 883.0, 24.0, 24.0 ],
									"style" : ""
								}

							}
, 							{
								"box" : 								{
									"id" : "obj-400",
									"maxclass" : "button",
									"numinlets" : 1,
									"numoutlets" : 1,
									"outlettype" : [ "bang" ],
									"patching_rect" : [ 709.0, 526.0, 24.0, 24.0 ],
									"style" : ""
								}

							}
, 							{
								"box" : 								{
									"id" : "obj-398",
									"maxclass" : "button",
									"numinlets" : 1,
									"numoutlets" : 1,
									"outlettype" : [ "bang" ],
									"patching_rect" : [ 344.0, 742.0, 24.0, 24.0 ],
									"style" : ""
								}

							}
, 							{
								"box" : 								{
									"id" : "obj-396",
									"maxclass" : "number",
									"numinlets" : 1,
									"numoutlets" : 2,
									"outlettype" : [ "", "bang" ],
									"parameter_enable" : 0,
									"patching_rect" : [ 345.0, 860.0, 50.0, 22.0 ],
									"style" : ""
								}

							}
, 							{
								"box" : 								{
									"id" : "obj-394",
									"maxclass" : "newobj",
									"numinlets" : 1,
									"numoutlets" : 2,
									"outlettype" : [ "bang", "bang" ],
									"patching_rect" : [ 625.0, 873.0, 34.0, 22.0 ],
									"style" : "",
									"text" : "t b b"
								}

							}
, 							{
								"box" : 								{
									"id" : "obj-392",
									"maxclass" : "newobj",
									"numinlets" : 2,
									"numoutlets" : 1,
									"outlettype" : [ "int" ],
									"patching_rect" : [ 553.0, 702.0, 29.5, 22.0 ],
									"style" : "",
									"text" : "i"
								}

							}
, 							{
								"box" : 								{
									"id" : "obj-389",
									"maxclass" : "message",
									"numinlets" : 2,
									"numoutlets" : 1,
									"outlettype" : [ "" ],
									"patching_rect" : [ 486.0, 679.0, 29.5, 22.0 ],
									"style" : "",
									"text" : "0"
								}

							}
, 							{
								"box" : 								{
									"id" : "obj-387",
									"maxclass" : "message",
									"numinlets" : 2,
									"numoutlets" : 1,
									"outlettype" : [ "" ],
									"patching_rect" : [ 448.0, 679.0, 29.5, 22.0 ],
									"style" : "",
									"text" : "1"
								}

							}
, 							{
								"box" : 								{
									"id" : "obj-382",
									"maxclass" : "newobj",
									"numinlets" : 1,
									"numoutlets" : 2,
									"outlettype" : [ "float", "float" ],
									"patching_rect" : [ 713.25, 819.0, 76.0, 22.0 ],
									"style" : "",
									"text" : "unpack 0. 0."
								}

							}
, 							{
								"box" : 								{
									"id" : "obj-377",
									"maxclass" : "newobj",
									"numinlets" : 2,
									"numoutlets" : 1,
									"outlettype" : [ "" ],
									"patching_rect" : [ 720.0, 789.0, 57.0, 22.0 ],
									"style" : "",
									"text" : "pak 0. 0."
								}

							}
, 							{
								"box" : 								{
									"id" : "obj-376",
									"maxclass" : "newobj",
									"numinlets" : 2,
									"numoutlets" : 1,
									"outlettype" : [ "int" ],
									"patching_rect" : [ 759.75, 853.0, 29.5, 22.0 ],
									"style" : "",
									"text" : ">"
								}

							}
, 							{
								"box" : 								{
									"format" : 6,
									"id" : "obj-374",
									"maxclass" : "flonum",
									"numinlets" : 1,
									"numoutlets" : 2,
									"outlettype" : [ "", "bang" ],
									"parameter_enable" : 0,
									"patching_rect" : [ 776.0, 749.586609, 191.0, 22.0 ],
									"style" : ""
								}

							}
, 							{
								"box" : 								{
									"id" : "obj-373",
									"maxclass" : "number",
									"numinlets" : 1,
									"numoutlets" : 2,
									"outlettype" : [ "", "bang" ],
									"parameter_enable" : 0,
									"patching_rect" : [ 788.0, 632.0, 50.0, 22.0 ],
									"style" : ""
								}

							}
, 							{
								"box" : 								{
									"id" : "obj-371",
									"maxclass" : "newobj",
									"numinlets" : 2,
									"numoutlets" : 1,
									"outlettype" : [ "bang" ],
									"patching_rect" : [ 448.0, 719.0, 51.0, 22.0 ],
									"style" : "",
									"text" : "metro 1"
								}

							}
, 							{
								"box" : 								{
									"id" : "obj-370",
									"maxclass" : "newobj",
									"numinlets" : 5,
									"numoutlets" : 4,
									"outlettype" : [ "int", "", "", "int" ],
									"patching_rect" : [ 448.0, 777.586609, 61.0, 22.0 ],
									"style" : "",
									"text" : "counter"
								}

							}
, 							{
								"box" : 								{
									"id" : "obj-369",
									"maxclass" : "message",
									"numinlets" : 2,
									"numoutlets" : 1,
									"outlettype" : [ "" ],
									"patching_rect" : [ 161.0, 547.0, 29.5, 22.0 ],
									"style" : "",
									"text" : "0."
								}

							}
, 							{
								"box" : 								{
									"format" : 6,
									"id" : "obj-367",
									"maxclass" : "flonum",
									"numinlets" : 1,
									"numoutlets" : 2,
									"outlettype" : [ "", "bang" ],
									"parameter_enable" : 0,
									"patching_rect" : [ 50.0, 632.0, 191.0, 22.0 ],
									"style" : ""
								}

							}
, 							{
								"box" : 								{
									"id" : "obj-366",
									"maxclass" : "newobj",
									"numinlets" : 2,
									"numoutlets" : 1,
									"outlettype" : [ "float" ],
									"patching_rect" : [ 161.0, 595.0, 29.5, 22.0 ],
									"style" : "",
									"text" : "f"
								}

							}
, 							{
								"box" : 								{
									"id" : "obj-363",
									"maxclass" : "newobj",
									"numinlets" : 1,
									"numoutlets" : 2,
									"outlettype" : [ "float", "bang" ],
									"patching_rect" : [ 243.0, 569.0, 31.0, 22.0 ],
									"style" : "",
									"text" : "t f b"
								}

							}
, 							{
								"box" : 								{
									"format" : 6,
									"id" : "obj-361",
									"maxclass" : "flonum",
									"numinlets" : 1,
									"numoutlets" : 2,
									"outlettype" : [ "", "bang" ],
									"parameter_enable" : 0,
									"patching_rect" : [ 603.0, 749.586609, 160.0, 22.0 ],
									"style" : ""
								}

							}
, 							{
								"box" : 								{
									"id" : "obj-359",
									"maxclass" : "newobj",
									"numinlets" : 1,
									"numoutlets" : 3,
									"outlettype" : [ "", "", "" ],
									"patcher" : 									{
										"fileversion" : 1,
										"appversion" : 										{
											"major" : 7,
											"minor" : 3,
											"revision" : 4,
											"architecture" : "x64",
											"modernui" : 1
										}
,
										"rect" : [ 141.0, 109.0, 640.0, 480.0 ],
										"bglocked" : 0,
										"openinpresentation" : 0,
										"default_fontsize" : 12.0,
										"default_fontface" : 0,
										"default_fontname" : "Arial",
										"gridonopen" : 1,
										"gridsize" : [ 15.0, 15.0 ],
										"gridsnaponopen" : 1,
										"objectsnaponopen" : 1,
										"statusbarvisible" : 2,
										"toolbarvisible" : 1,
										"lefttoolbarpinned" : 0,
										"toptoolbarpinned" : 0,
										"righttoolbarpinned" : 0,
										"bottomtoolbarpinned" : 0,
										"toolbars_unpinned_last_save" : 0,
										"tallnewobj" : 0,
										"boxanimatetime" : 200,
										"enablehscroll" : 1,
										"enablevscroll" : 1,
										"devicewidth" : 0.0,
										"description" : "",
										"digest" : "",
										"tags" : "",
										"style" : "",
										"subpatcher_template" : "",
										"boxes" : [ 											{
												"box" : 												{
													"id" : "obj-114",
													"maxclass" : "newobj",
													"numinlets" : 2,
													"numoutlets" : 2,
													"outlettype" : [ "", "" ],
													"patching_rect" : [ 173.0, 213.0, 57.0, 22.0 ],
													"style" : "",
													"text" : "zl.slice 1"
												}

											}
, 											{
												"box" : 												{
													"id" : "obj-111",
													"maxclass" : "newobj",
													"numinlets" : 1,
													"numoutlets" : 1,
													"outlettype" : [ "" ],
													"patching_rect" : [ 135.0, 138.0, 73.0, 22.0 ],
													"style" : "",
													"text" : "fromsymbol"
												}

											}
, 											{
												"box" : 												{
													"id" : "obj-106",
													"maxclass" : "newobj",
													"numinlets" : 2,
													"numoutlets" : 2,
													"outlettype" : [ "", "" ],
													"patching_rect" : [ 135.0, 174.0, 57.0, 22.0 ],
													"style" : "",
													"text" : "zl.slice 1"
												}

											}
, 											{
												"box" : 												{
													"id" : "obj-99",
													"maxclass" : "newobj",
													"numinlets" : 1,
													"numoutlets" : 5,
													"outlettype" : [ "", "", "", "", "" ],
													"patching_rect" : [ 50.0, 100.0, 189.0, 22.0 ],
													"style" : "",
													"text" : "regexp (E4_\\\\w+)([\\\\-\\\\w\\\\s\\\\t\\\\d.]+)"
												}

											}
, 											{
												"box" : 												{
													"annotation" : "",
													"comment" : "Message from Empatica E4",
													"hint" : "",
													"id" : "obj-122",
													"index" : 1,
													"maxclass" : "inlet",
													"numinlets" : 0,
													"numoutlets" : 1,
													"outlettype" : [ "" ],
													"patching_rect" : [ 50.0, 40.0, 30.0, 30.0 ],
													"style" : ""
												}

											}
, 											{
												"box" : 												{
													"annotation" : "",
													"comment" : "Signal name",
													"hint" : "",
													"id" : "obj-123",
													"index" : 1,
													"maxclass" : "outlet",
													"numinlets" : 1,
													"numoutlets" : 0,
													"patching_rect" : [ 135.0, 295.0, 30.0, 30.0 ],
													"style" : ""
												}

											}
, 											{
												"box" : 												{
													"annotation" : "",
													"comment" : "Sample timestamp",
													"hint" : "",
													"id" : "obj-124",
													"index" : 2,
													"maxclass" : "outlet",
													"numinlets" : 1,
													"numoutlets" : 0,
													"patching_rect" : [ 173.0, 295.0, 30.0, 30.0 ],
													"style" : ""
												}

											}
, 											{
												"box" : 												{
													"annotation" : "",
													"comment" : "Value of signal(s) at timestamp",
													"hint" : "",
													"id" : "obj-125",
													"index" : 3,
													"maxclass" : "outlet",
													"numinlets" : 1,
													"numoutlets" : 0,
													"patching_rect" : [ 211.0, 295.0, 30.0, 30.0 ],
													"style" : ""
												}

											}
 ],
										"lines" : [ 											{
												"patchline" : 												{
													"destination" : [ "obj-114", 0 ],
													"source" : [ "obj-106", 1 ]
												}

											}
, 											{
												"patchline" : 												{
													"destination" : [ "obj-123", 0 ],
													"source" : [ "obj-106", 0 ]
												}

											}
, 											{
												"patchline" : 												{
													"destination" : [ "obj-106", 0 ],
													"source" : [ "obj-111", 0 ]
												}

											}
, 											{
												"patchline" : 												{
													"destination" : [ "obj-124", 0 ],
													"source" : [ "obj-114", 0 ]
												}

											}
, 											{
												"patchline" : 												{
													"destination" : [ "obj-125", 0 ],
													"source" : [ "obj-114", 1 ]
												}

											}
, 											{
												"patchline" : 												{
													"destination" : [ "obj-99", 0 ],
													"source" : [ "obj-122", 0 ]
												}

											}
, 											{
												"patchline" : 												{
													"destination" : [ "obj-111", 0 ],
													"source" : [ "obj-99", 2 ]
												}

											}
 ]
									}
,
									"patching_rect" : [ 650.0, 699.0, 127.0, 22.0 ],
									"saved_object_attributes" : 									{
										"description" : "",
										"digest" : "",
										"globalpatchername" : "",
										"style" : "",
										"tags" : ""
									}
,
									"style" : "",
									"text" : "p SplitEmpaticaSignal"
								}

							}
, 							{
								"box" : 								{
									"id" : "obj-358",
									"maxclass" : "message",
									"numinlets" : 2,
									"numoutlets" : 1,
									"outlettype" : [ "" ],
									"patching_rect" : [ 816.0, 522.0, 197.0, 22.0 ],
									"style" : "",
									"text" : "E4_Bvp 43.1426 14.6"
								}

							}
, 							{
								"box" : 								{
									"id" : "obj-356",
									"maxclass" : "newobj",
									"numinlets" : 1,
									"numoutlets" : 4,
									"outlettype" : [ "", "", "", "" ],
									"patching_rect" : [ 729.0, 581.0, 91.0, 22.0 ],
									"saved_object_attributes" : 									{
										"embed" : 0
									}
,
									"style" : "",
									"text" : "coll testSignals"
								}

							}
, 							{
								"box" : 								{
									"id" : "obj-355",
									"maxclass" : "message",
									"numinlets" : 2,
									"numoutlets" : 1,
									"outlettype" : [ "" ],
									"patching_rect" : [ 309.0, 441.0, 29.5, 22.0 ],
									"style" : "",
									"text" : "0"
								}

							}
, 							{
								"box" : 								{
									"id" : "obj-353",
									"maxclass" : "message",
									"numinlets" : 2,
									"numoutlets" : 1,
									"outlettype" : [ "" ],
									"patching_rect" : [ 321.0, 376.0, 87.0, 22.0 ],
									"style" : "",
									"text" : "Stop Playback"
								}

							}
, 							{
								"box" : 								{
									"id" : "obj-351",
									"maxclass" : "message",
									"numinlets" : 2,
									"numoutlets" : 1,
									"outlettype" : [ "" ],
									"patching_rect" : [ 227.5, 452.0, 29.5, 22.0 ],
									"style" : "",
									"text" : "1"
								}

							}
, 							{
								"box" : 								{
									"id" : "obj-349",
									"maxclass" : "newobj",
									"numinlets" : 1,
									"numoutlets" : 2,
									"outlettype" : [ "bang", "bang" ],
									"patching_rect" : [ 223.0, 417.0, 34.0, 22.0 ],
									"style" : "",
									"text" : "t b b"
								}

							}
, 							{
								"box" : 								{
									"id" : "obj-348",
									"maxclass" : "message",
									"numinlets" : 2,
									"numoutlets" : 1,
									"outlettype" : [ "" ],
									"patching_rect" : [ 208.0, 376.0, 88.0, 22.0 ],
									"style" : "",
									"text" : "Start Playback"
								}

							}
, 							{
								"box" : 								{
									"format" : 6,
									"id" : "obj-344",
									"maxclass" : "flonum",
									"numinlets" : 1,
									"numoutlets" : 2,
									"outlettype" : [ "", "bang" ],
									"parameter_enable" : 0,
									"patching_rect" : [ 269.0, 632.0, 191.0, 22.0 ],
									"style" : ""
								}

							}
, 							{
								"box" : 								{
									"id" : "obj-342",
									"maxclass" : "newobj",
									"numinlets" : 1,
									"numoutlets" : 1,
									"outlettype" : [ "float" ],
									"patching_rect" : [ 239.0, 528.0, 57.0, 22.0 ],
									"style" : "",
									"text" : "cpuclock"
								}

							}
, 							{
								"box" : 								{
									"id" : "obj-337",
									"maxclass" : "newobj",
									"numinlets" : 2,
									"numoutlets" : 1,
									"outlettype" : [ "bang" ],
									"patching_rect" : [ 239.0, 482.0, 58.0, 22.0 ],
									"style" : "",
									"text" : "metro 10"
								}

							}
, 							{
								"box" : 								{
									"id" : "obj-334",
									"maxclass" : "newobj",
									"numinlets" : 1,
									"numoutlets" : 1,
									"outlettype" : [ "bang" ],
									"patching_rect" : [ 591.0, 541.0, 59.0, 22.0 ],
									"style" : "",
									"text" : "timepoint"
								}

							}
, 							{
								"box" : 								{
									"id" : "obj-325",
									"maxclass" : "newobj",
									"numinlets" : 2,
									"numoutlets" : 1,
									"outlettype" : [ "int" ],
									"patching_rect" : [ 499.0, 250.0, 29.5, 22.0 ],
									"style" : "",
									"text" : "- 1"
								}

							}
, 							{
								"box" : 								{
									"id" : "obj-324",
									"maxclass" : "newobj",
									"numinlets" : 2,
									"numoutlets" : 3,
									"outlettype" : [ "bang", "bang", "int" ],
									"patching_rect" : [ 511.0, 202.0, 40.0, 22.0 ],
									"style" : "",
									"text" : "Uzi"
								}

							}
, 							{
								"box" : 								{
									"id" : "obj-323",
									"maxclass" : "number",
									"numinlets" : 1,
									"numoutlets" : 2,
									"outlettype" : [ "", "bang" ],
									"parameter_enable" : 0,
									"patching_rect" : [ 548.0, 166.0, 50.0, 22.0 ],
									"style" : ""
								}

							}
, 							{
								"box" : 								{
									"id" : "obj-318",
									"maxclass" : "newobj",
									"numinlets" : 1,
									"numoutlets" : 4,
									"outlettype" : [ "", "", "", "" ],
									"patching_rect" : [ 548.0, 130.0, 91.0, 22.0 ],
									"saved_object_attributes" : 									{
										"embed" : 0
									}
,
									"style" : "",
									"text" : "coll testSignals"
								}

							}
, 							{
								"box" : 								{
									"id" : "obj-315",
									"maxclass" : "button",
									"numinlets" : 1,
									"numoutlets" : 1,
									"outlettype" : [ "bang" ],
									"patching_rect" : [ 407.0, 178.0, 24.0, 24.0 ],
									"style" : ""
								}

							}
, 							{
								"box" : 								{
									"format" : 6,
									"id" : "obj-313",
									"maxclass" : "flonum",
									"numinlets" : 1,
									"numoutlets" : 2,
									"outlettype" : [ "", "bang" ],
									"parameter_enable" : 0,
									"patching_rect" : [ 645.0, 424.0, 270.0, 22.0 ],
									"style" : ""
								}

							}
, 							{
								"box" : 								{
									"id" : "obj-126",
									"maxclass" : "newobj",
									"numinlets" : 1,
									"numoutlets" : 3,
									"outlettype" : [ "", "", "" ],
									"patcher" : 									{
										"fileversion" : 1,
										"appversion" : 										{
											"major" : 7,
											"minor" : 3,
											"revision" : 4,
											"architecture" : "x64",
											"modernui" : 1
										}
,
										"rect" : [ 141.0, 109.0, 640.0, 480.0 ],
										"bglocked" : 0,
										"openinpresentation" : 0,
										"default_fontsize" : 12.0,
										"default_fontface" : 0,
										"default_fontname" : "Arial",
										"gridonopen" : 1,
										"gridsize" : [ 15.0, 15.0 ],
										"gridsnaponopen" : 1,
										"objectsnaponopen" : 1,
										"statusbarvisible" : 2,
										"toolbarvisible" : 1,
										"lefttoolbarpinned" : 0,
										"toptoolbarpinned" : 0,
										"righttoolbarpinned" : 0,
										"bottomtoolbarpinned" : 0,
										"toolbars_unpinned_last_save" : 0,
										"tallnewobj" : 0,
										"boxanimatetime" : 200,
										"enablehscroll" : 1,
										"enablevscroll" : 1,
										"devicewidth" : 0.0,
										"description" : "",
										"digest" : "",
										"tags" : "",
										"style" : "",
										"subpatcher_template" : "",
										"boxes" : [ 											{
												"box" : 												{
													"id" : "obj-114",
													"maxclass" : "newobj",
													"numinlets" : 2,
													"numoutlets" : 2,
													"outlettype" : [ "", "" ],
													"patching_rect" : [ 173.0, 213.0, 57.0, 22.0 ],
													"style" : "",
													"text" : "zl.slice 1"
												}

											}
, 											{
												"box" : 												{
													"id" : "obj-111",
													"maxclass" : "newobj",
													"numinlets" : 1,
													"numoutlets" : 1,
													"outlettype" : [ "" ],
													"patching_rect" : [ 135.0, 138.0, 73.0, 22.0 ],
													"style" : "",
													"text" : "fromsymbol"
												}

											}
, 											{
												"box" : 												{
													"id" : "obj-106",
													"maxclass" : "newobj",
													"numinlets" : 2,
													"numoutlets" : 2,
													"outlettype" : [ "", "" ],
													"patching_rect" : [ 135.0, 174.0, 57.0, 22.0 ],
													"style" : "",
													"text" : "zl.slice 1"
												}

											}
, 											{
												"box" : 												{
													"id" : "obj-99",
													"maxclass" : "newobj",
													"numinlets" : 1,
													"numoutlets" : 5,
													"outlettype" : [ "", "", "", "", "" ],
													"patching_rect" : [ 50.0, 100.0, 189.0, 22.0 ],
													"style" : "",
													"text" : "regexp (E4_\\\\w+)([\\\\-\\\\w\\\\s\\\\t\\\\d.]+)"
												}

											}
, 											{
												"box" : 												{
													"annotation" : "",
													"comment" : "Message from Empatica E4",
													"hint" : "",
													"id" : "obj-122",
													"index" : 1,
													"maxclass" : "inlet",
													"numinlets" : 0,
													"numoutlets" : 1,
													"outlettype" : [ "" ],
													"patching_rect" : [ 50.0, 40.0, 30.0, 30.0 ],
													"style" : ""
												}

											}
, 											{
												"box" : 												{
													"annotation" : "",
													"comment" : "Signal name",
													"hint" : "",
													"id" : "obj-123",
													"index" : 1,
													"maxclass" : "outlet",
													"numinlets" : 1,
													"numoutlets" : 0,
													"patching_rect" : [ 135.0, 295.0, 30.0, 30.0 ],
													"style" : ""
												}

											}
, 											{
												"box" : 												{
													"annotation" : "",
													"comment" : "Sample timestamp",
													"hint" : "",
													"id" : "obj-124",
													"index" : 2,
													"maxclass" : "outlet",
													"numinlets" : 1,
													"numoutlets" : 0,
													"patching_rect" : [ 173.0, 295.0, 30.0, 30.0 ],
													"style" : ""
												}

											}
, 											{
												"box" : 												{
													"annotation" : "",
													"comment" : "Value of signal(s) at timestamp",
													"hint" : "",
													"id" : "obj-125",
													"index" : 3,
													"maxclass" : "outlet",
													"numinlets" : 1,
													"numoutlets" : 0,
													"patching_rect" : [ 211.0, 295.0, 30.0, 30.0 ],
													"style" : ""
												}

											}
 ],
										"lines" : [ 											{
												"patchline" : 												{
													"destination" : [ "obj-114", 0 ],
													"source" : [ "obj-106", 1 ]
												}

											}
, 											{
												"patchline" : 												{
													"destination" : [ "obj-123", 0 ],
													"source" : [ "obj-106", 0 ]
												}

											}
, 											{
												"patchline" : 												{
													"destination" : [ "obj-106", 0 ],
													"source" : [ "obj-111", 0 ]
												}

											}
, 											{
												"patchline" : 												{
													"destination" : [ "obj-124", 0 ],
													"source" : [ "obj-114", 0 ]
												}

											}
, 											{
												"patchline" : 												{
													"destination" : [ "obj-125", 0 ],
													"source" : [ "obj-114", 1 ]
												}

											}
, 											{
												"patchline" : 												{
													"destination" : [ "obj-99", 0 ],
													"source" : [ "obj-122", 0 ]
												}

											}
, 											{
												"patchline" : 												{
													"destination" : [ "obj-111", 0 ],
													"source" : [ "obj-99", 2 ]
												}

											}
 ]
									}
,
									"patching_rect" : [ 591.0, 389.586609, 127.0, 22.0 ],
									"saved_object_attributes" : 									{
										"description" : "",
										"digest" : "",
										"globalpatchername" : "",
										"style" : "",
										"tags" : ""
									}
,
									"style" : "",
									"text" : "p SplitEmpaticaSignal"
								}

							}
, 							{
								"box" : 								{
									"id" : "obj-309",
									"maxclass" : "number",
									"numinlets" : 1,
									"numoutlets" : 2,
									"outlettype" : [ "", "bang" ],
									"parameter_enable" : 0,
									"patching_rect" : [ 941.0, 424.0, 50.0, 22.0 ],
									"style" : ""
								}

							}
, 							{
								"box" : 								{
									"id" : "obj-305",
									"maxclass" : "newobj",
									"numinlets" : 1,
									"numoutlets" : 4,
									"outlettype" : [ "", "", "", "" ],
									"patching_rect" : [ 408.0, 308.0, 91.0, 22.0 ],
									"saved_object_attributes" : 									{
										"embed" : 0
									}
,
									"style" : "",
									"text" : "coll testSignals"
								}

							}
, 							{
								"box" : 								{
									"id" : "obj-299",
									"maxclass" : "newobj",
									"numinlets" : 2,
									"numoutlets" : 1,
									"outlettype" : [ "" ],
									"patching_rect" : [ 269.0, 156.0, 34.0, 22.0 ],
									"style" : "",
									"text" : "gate"
								}

							}
, 							{
								"box" : 								{
									"id" : "obj-319",
									"maxclass" : "message",
									"numinlets" : 2,
									"numoutlets" : 1,
									"outlettype" : [ "" ],
									"patching_rect" : [ 548.0, 100.0, 50.0, 22.0 ],
									"style" : "",
									"text" : "length"
								}

							}
, 							{
								"box" : 								{
									"id" : "obj-352",
									"maxclass" : "message",
									"numinlets" : 2,
									"numoutlets" : 1,
									"outlettype" : [ "" ],
									"patching_rect" : [ 329.5, 482.0, 50.0, 22.0 ],
									"style" : "",
									"text" : "reset"
								}

							}
 ],
						"lines" : [ 							{
								"patchline" : 								{
									"destination" : [ "obj-313", 0 ],
									"source" : [ "obj-126", 1 ]
								}

							}
, 							{
								"patchline" : 								{
									"destination" : [ "obj-126", 0 ],
									"source" : [ "obj-305", 0 ]
								}

							}
, 							{
								"patchline" : 								{
									"destination" : [ "obj-309", 0 ],
									"source" : [ "obj-305", 1 ]
								}

							}
, 							{
								"patchline" : 								{
									"destination" : [ "obj-324", 0 ],
									"source" : [ "obj-315", 0 ]
								}

							}
, 							{
								"patchline" : 								{
									"destination" : [ "obj-323", 0 ],
									"source" : [ "obj-318", 0 ]
								}

							}
, 							{
								"patchline" : 								{
									"destination" : [ "obj-318", 0 ],
									"source" : [ "obj-319", 0 ]
								}

							}
, 							{
								"patchline" : 								{
									"destination" : [ "obj-324", 1 ],
									"source" : [ "obj-323", 0 ]
								}

							}
, 							{
								"patchline" : 								{
									"destination" : [ "obj-325", 0 ],
									"source" : [ "obj-324", 2 ]
								}

							}
, 							{
								"patchline" : 								{
									"destination" : [ "obj-305", 0 ],
									"source" : [ "obj-325", 0 ]
								}

							}
, 							{
								"patchline" : 								{
									"destination" : [ "obj-342", 0 ],
									"order" : 1,
									"source" : [ "obj-337", 0 ]
								}

							}
, 							{
								"patchline" : 								{
									"destination" : [ "obj-387", 0 ],
									"order" : 0,
									"source" : [ "obj-337", 0 ]
								}

							}
, 							{
								"patchline" : 								{
									"destination" : [ "obj-363", 0 ],
									"source" : [ "obj-342", 0 ]
								}

							}
, 							{
								"patchline" : 								{
									"destination" : [ "obj-406", 0 ],
									"source" : [ "obj-344", 0 ]
								}

							}
, 							{
								"patchline" : 								{
									"destination" : [ "obj-349", 0 ],
									"order" : 1,
									"source" : [ "obj-348", 0 ]
								}

							}
, 							{
								"patchline" : 								{
									"destination" : [ "obj-369", 0 ],
									"order" : 2,
									"source" : [ "obj-348", 0 ]
								}

							}
, 							{
								"patchline" : 								{
									"destination" : [ "obj-405", 0 ],
									"order" : 0,
									"source" : [ "obj-348", 0 ]
								}

							}
, 							{
								"patchline" : 								{
									"destination" : [ "obj-351", 0 ],
									"source" : [ "obj-349", 0 ]
								}

							}
, 							{
								"patchline" : 								{
									"destination" : [ "obj-352", 0 ],
									"source" : [ "obj-349", 1 ]
								}

							}
, 							{
								"patchline" : 								{
									"destination" : [ "obj-337", 0 ],
									"source" : [ "obj-351", 0 ]
								}

							}
, 							{
								"patchline" : 								{
									"destination" : [ "obj-342", 0 ],
									"source" : [ "obj-352", 0 ]
								}

							}
, 							{
								"patchline" : 								{
									"destination" : [ "obj-355", 0 ],
									"order" : 1,
									"source" : [ "obj-353", 0 ]
								}

							}
, 							{
								"patchline" : 								{
									"destination" : [ "obj-389", 0 ],
									"order" : 0,
									"source" : [ "obj-353", 0 ]
								}

							}
, 							{
								"patchline" : 								{
									"destination" : [ "obj-337", 0 ],
									"source" : [ "obj-355", 0 ]
								}

							}
, 							{
								"patchline" : 								{
									"destination" : [ "obj-358", 1 ],
									"order" : 0,
									"source" : [ "obj-356", 0 ]
								}

							}
, 							{
								"patchline" : 								{
									"destination" : [ "obj-359", 0 ],
									"order" : 1,
									"source" : [ "obj-356", 0 ]
								}

							}
, 							{
								"patchline" : 								{
									"destination" : [ "obj-373", 0 ],
									"order" : 0,
									"source" : [ "obj-356", 1 ]
								}

							}
, 							{
								"patchline" : 								{
									"destination" : [ "obj-392", 1 ],
									"order" : 1,
									"source" : [ "obj-356", 1 ]
								}

							}
, 							{
								"patchline" : 								{
									"destination" : [ "obj-361", 0 ],
									"source" : [ "obj-359", 1 ]
								}

							}
, 							{
								"patchline" : 								{
									"destination" : [ "obj-377", 0 ],
									"source" : [ "obj-361", 0 ]
								}

							}
, 							{
								"patchline" : 								{
									"destination" : [ "obj-344", 0 ],
									"order" : 0,
									"source" : [ "obj-363", 0 ]
								}

							}
, 							{
								"patchline" : 								{
									"destination" : [ "obj-366", 0 ],
									"source" : [ "obj-363", 1 ]
								}

							}
, 							{
								"patchline" : 								{
									"destination" : [ "obj-366", 1 ],
									"order" : 1,
									"source" : [ "obj-363", 0 ]
								}

							}
, 							{
								"patchline" : 								{
									"destination" : [ "obj-367", 0 ],
									"source" : [ "obj-366", 0 ]
								}

							}
, 							{
								"patchline" : 								{
									"destination" : [ "obj-366", 0 ],
									"source" : [ "obj-369", 0 ]
								}

							}
, 							{
								"patchline" : 								{
									"destination" : [ "obj-356", 0 ],
									"order" : 0,
									"source" : [ "obj-370", 0 ]
								}

							}
, 							{
								"patchline" : 								{
									"destination" : [ "obj-396", 0 ],
									"order" : 1,
									"source" : [ "obj-370", 0 ]
								}

							}
, 							{
								"patchline" : 								{
									"destination" : [ "obj-370", 0 ],
									"source" : [ "obj-371", 0 ]
								}

							}
, 							{
								"patchline" : 								{
									"destination" : [ "obj-377", 1 ],
									"source" : [ "obj-374", 0 ]
								}

							}
, 							{
								"patchline" : 								{
									"destination" : [ "obj-403", 0 ],
									"source" : [ "obj-376", 0 ]
								}

							}
, 							{
								"patchline" : 								{
									"destination" : [ "obj-382", 0 ],
									"source" : [ "obj-377", 0 ]
								}

							}
, 							{
								"patchline" : 								{
									"destination" : [ "obj-376", 1 ],
									"source" : [ "obj-382", 1 ]
								}

							}
, 							{
								"patchline" : 								{
									"destination" : [ "obj-376", 0 ],
									"source" : [ "obj-382", 0 ]
								}

							}
, 							{
								"patchline" : 								{
									"destination" : [ "obj-371", 0 ],
									"source" : [ "obj-387", 0 ]
								}

							}
, 							{
								"patchline" : 								{
									"destination" : [ "obj-371", 0 ],
									"source" : [ "obj-389", 0 ]
								}

							}
, 							{
								"patchline" : 								{
									"destination" : [ "obj-370", 2 ],
									"source" : [ "obj-392", 0 ]
								}

							}
, 							{
								"patchline" : 								{
									"destination" : [ "obj-389", 0 ],
									"source" : [ "obj-394", 1 ]
								}

							}
, 							{
								"patchline" : 								{
									"destination" : [ "obj-392", 0 ],
									"order" : 1,
									"source" : [ "obj-394", 0 ]
								}

							}
, 							{
								"patchline" : 								{
									"destination" : [ "obj-409", 0 ],
									"order" : 0,
									"source" : [ "obj-394", 0 ]
								}

							}
, 							{
								"patchline" : 								{
									"destination" : [ "obj-370", 0 ],
									"source" : [ "obj-398", 0 ]
								}

							}
, 							{
								"patchline" : 								{
									"destination" : [ "obj-356", 0 ],
									"source" : [ "obj-400", 0 ]
								}

							}
, 							{
								"patchline" : 								{
									"destination" : [ "obj-394", 0 ],
									"order" : 1,
									"source" : [ "obj-403", 0 ]
								}

							}
, 							{
								"patchline" : 								{
									"destination" : [ "obj-402", 0 ],
									"order" : 0,
									"source" : [ "obj-403", 0 ]
								}

							}
, 							{
								"patchline" : 								{
									"destination" : [ "obj-370", 3 ],
									"source" : [ "obj-405", 0 ]
								}

							}
, 							{
								"patchline" : 								{
									"destination" : [ "obj-374", 0 ],
									"order" : 0,
									"source" : [ "obj-406", 0 ]
								}

							}
, 							{
								"patchline" : 								{
									"destination" : [ "obj-407", 0 ],
									"order" : 1,
									"source" : [ "obj-406", 0 ]
								}

							}
, 							{
								"patchline" : 								{
									"destination" : [ "obj-403", 0 ],
									"source" : [ "obj-409", 0 ]
								}

							}
 ]
					}
,
					"patching_rect" : [ 1130.0, 818.0, 79.0, 22.0 ],
					"saved_object_attributes" : 					{
						"description" : "",
						"digest" : "",
						"globalpatchername" : "",
						"style" : "",
						"tags" : ""
					}
,
					"style" : "",
					"text" : "p scratchpad"
				}

			}
, 			{
				"box" : 				{
					"id" : "obj-298",
					"maxclass" : "newobj",
					"numinlets" : 1,
					"numoutlets" : 1,
					"outlettype" : [ "" ],
					"patcher" : 					{
						"fileversion" : 1,
						"appversion" : 						{
							"major" : 7,
							"minor" : 3,
							"revision" : 4,
							"architecture" : "x64",
							"modernui" : 1
						}
,
						"rect" : [ 604.0, 84.0, 640.0, 876.0 ],
						"bglocked" : 0,
						"openinpresentation" : 0,
						"default_fontsize" : 12.0,
						"default_fontface" : 0,
						"default_fontname" : "Arial",
						"gridonopen" : 1,
						"gridsize" : [ 15.0, 15.0 ],
						"gridsnaponopen" : 1,
						"objectsnaponopen" : 1,
						"statusbarvisible" : 2,
						"toolbarvisible" : 1,
						"lefttoolbarpinned" : 0,
						"toptoolbarpinned" : 0,
						"righttoolbarpinned" : 0,
						"bottomtoolbarpinned" : 0,
						"toolbars_unpinned_last_save" : 0,
						"tallnewobj" : 0,
						"boxanimatetime" : 200,
						"enablehscroll" : 1,
						"enablevscroll" : 1,
						"devicewidth" : 0.0,
						"description" : "",
						"digest" : "",
						"tags" : "",
						"style" : "",
						"subpatcher_template" : "",
						"boxes" : [ 							{
								"box" : 								{
									"id" : "obj-9",
									"maxclass" : "newobj",
									"numinlets" : 2,
									"numoutlets" : 1,
									"outlettype" : [ "int" ],
									"patching_rect" : [ 679.0, 667.0, 29.5, 22.0 ],
									"style" : "",
									"text" : "i"
								}

							}
, 							{
								"box" : 								{
									"id" : "obj-8",
									"maxclass" : "newobj",
									"numinlets" : 2,
									"numoutlets" : 1,
									"outlettype" : [ "float" ],
									"patching_rect" : [ 696.0, 636.0, 49.0, 22.0 ],
									"style" : "",
									"text" : "* 1000."
								}

							}
, 							{
								"box" : 								{
									"id" : "obj-4",
									"maxclass" : "newobj",
									"numinlets" : 1,
									"numoutlets" : 4,
									"outlettype" : [ "", "", "", "" ],
									"patching_rect" : [ 50.0, 678.586609, 91.0, 22.0 ],
									"saved_object_attributes" : 									{
										"embed" : 0
									}
,
									"style" : "",
									"text" : "coll testSignals"
								}

							}
, 							{
								"box" : 								{
									"id" : "obj-295",
									"maxclass" : "newobj",
									"numinlets" : 1,
									"numoutlets" : 2,
									"outlettype" : [ "bang", "bang" ],
									"patching_rect" : [ 681.0, 203.586609, 38.0, 22.0 ],
									"style" : "",
									"text" : "t b b"
								}

							}
, 							{
								"box" : 								{
									"id" : "obj-294",
									"maxclass" : "newobj",
									"numinlets" : 0,
									"numoutlets" : 1,
									"outlettype" : [ "" ],
									"patching_rect" : [ 889.5, 444.586609, 86.0, 22.0 ],
									"style" : "",
									"text" : "r findMinimum"
								}

							}
, 							{
								"box" : 								{
									"id" : "obj-293",
									"maxclass" : "newobj",
									"numinlets" : 1,
									"numoutlets" : 2,
									"outlettype" : [ "bang", "bang" ],
									"patching_rect" : [ 288.0, 542.586609, 34.0, 22.0 ],
									"style" : "",
									"text" : "t b b"
								}

							}
, 							{
								"box" : 								{
									"id" : "obj-292",
									"maxclass" : "newobj",
									"numinlets" : 0,
									"numoutlets" : 1,
									"outlettype" : [ "" ],
									"patching_rect" : [ 288.0, 502.586609, 115.0, 22.0 ],
									"style" : "",
									"text" : "r sortAndRenumber"
								}

							}
, 							{
								"box" : 								{
									"id" : "obj-291",
									"maxclass" : "newobj",
									"numinlets" : 0,
									"numoutlets" : 1,
									"outlettype" : [ "" ],
									"patching_rect" : [ 681.0, 169.586609, 106.0, 22.0 ],
									"style" : "",
									"text" : "r zeroTimestamps"
								}

							}
, 							{
								"box" : 								{
									"id" : "obj-290",
									"maxclass" : "newobj",
									"numinlets" : 1,
									"numoutlets" : 0,
									"patching_rect" : [ 211.0, 299.586609, 108.0, 22.0 ],
									"style" : "",
									"text" : "s zeroTimestamps"
								}

							}
, 							{
								"box" : 								{
									"id" : "obj-288",
									"maxclass" : "newobj",
									"numinlets" : 1,
									"numoutlets" : 0,
									"patching_rect" : [ 340.5, 299.586609, 88.0, 22.0 ],
									"style" : "",
									"text" : "s findMinimum"
								}

							}
, 							{
								"box" : 								{
									"id" : "obj-287",
									"maxclass" : "newobj",
									"numinlets" : 1,
									"numoutlets" : 0,
									"patching_rect" : [ 449.0, 299.586609, 117.0, 22.0 ],
									"style" : "",
									"text" : "s sortAndRenumber"
								}

							}
, 							{
								"box" : 								{
									"id" : "obj-286",
									"maxclass" : "newobj",
									"numinlets" : 1,
									"numoutlets" : 3,
									"outlettype" : [ "bang", "bang", "bang" ],
									"patching_rect" : [ 340.5, 240.586609, 44.0, 22.0 ],
									"style" : "",
									"text" : "t b b b"
								}

							}
, 							{
								"box" : 								{
									"id" : "obj-285",
									"maxclass" : "newobj",
									"numinlets" : 1,
									"numoutlets" : 2,
									"outlettype" : [ "bang", "bang" ],
									"patching_rect" : [ 679.0, 546.586609, 29.5, 22.0 ],
									"style" : "",
									"text" : "b"
								}

							}
, 							{
								"box" : 								{
									"id" : "obj-271",
									"maxclass" : "newobj",
									"numinlets" : 2,
									"numoutlets" : 1,
									"outlettype" : [ "int" ],
									"patching_rect" : [ 679.0, 344.586609, 29.5, 22.0 ],
									"style" : "",
									"text" : "- 1"
								}

							}
, 							{
								"box" : 								{
									"id" : "obj-268",
									"maxclass" : "newobj",
									"numinlets" : 4,
									"numoutlets" : 1,
									"outlettype" : [ "" ],
									"patching_rect" : [ 679.0, 708.586609, 201.25, 22.0 ],
									"style" : "",
									"text" : "join 4"
								}

							}
, 							{
								"box" : 								{
									"id" : "obj-267",
									"maxclass" : "newobj",
									"numinlets" : 2,
									"numoutlets" : 1,
									"outlettype" : [ "float" ],
									"patching_rect" : [ 800.5, 557.586609, 29.5, 22.0 ],
									"style" : "",
									"text" : "- 0."
								}

							}
, 							{
								"box" : 								{
									"id" : "obj-266",
									"maxclass" : "newobj",
									"numinlets" : 1,
									"numoutlets" : 3,
									"outlettype" : [ "", "", "" ],
									"patcher" : 									{
										"fileversion" : 1,
										"appversion" : 										{
											"major" : 7,
											"minor" : 3,
											"revision" : 4,
											"architecture" : "x64",
											"modernui" : 1
										}
,
										"rect" : [ 141.0, 109.0, 640.0, 480.0 ],
										"bglocked" : 0,
										"openinpresentation" : 0,
										"default_fontsize" : 12.0,
										"default_fontface" : 0,
										"default_fontname" : "Arial",
										"gridonopen" : 1,
										"gridsize" : [ 15.0, 15.0 ],
										"gridsnaponopen" : 1,
										"objectsnaponopen" : 1,
										"statusbarvisible" : 2,
										"toolbarvisible" : 1,
										"lefttoolbarpinned" : 0,
										"toptoolbarpinned" : 0,
										"righttoolbarpinned" : 0,
										"bottomtoolbarpinned" : 0,
										"toolbars_unpinned_last_save" : 0,
										"tallnewobj" : 0,
										"boxanimatetime" : 200,
										"enablehscroll" : 1,
										"enablevscroll" : 1,
										"devicewidth" : 0.0,
										"description" : "",
										"digest" : "",
										"tags" : "",
										"style" : "",
										"subpatcher_template" : "",
										"boxes" : [ 											{
												"box" : 												{
													"id" : "obj-114",
													"maxclass" : "newobj",
													"numinlets" : 2,
													"numoutlets" : 2,
													"outlettype" : [ "", "" ],
													"patching_rect" : [ 173.0, 213.0, 57.0, 22.0 ],
													"style" : "",
													"text" : "zl.slice 1"
												}

											}
, 											{
												"box" : 												{
													"id" : "obj-111",
													"maxclass" : "newobj",
													"numinlets" : 1,
													"numoutlets" : 1,
													"outlettype" : [ "" ],
													"patching_rect" : [ 135.0, 138.0, 73.0, 22.0 ],
													"style" : "",
													"text" : "fromsymbol"
												}

											}
, 											{
												"box" : 												{
													"id" : "obj-106",
													"maxclass" : "newobj",
													"numinlets" : 2,
													"numoutlets" : 2,
													"outlettype" : [ "", "" ],
													"patching_rect" : [ 135.0, 174.0, 57.0, 22.0 ],
													"style" : "",
													"text" : "zl.slice 1"
												}

											}
, 											{
												"box" : 												{
													"id" : "obj-99",
													"maxclass" : "newobj",
													"numinlets" : 1,
													"numoutlets" : 5,
													"outlettype" : [ "", "", "", "", "" ],
													"patching_rect" : [ 50.0, 100.0, 189.0, 22.0 ],
													"style" : "",
													"text" : "regexp (E4_\\\\w+)([\\\\-\\\\w\\\\s\\\\t\\\\d.]+)"
												}

											}
, 											{
												"box" : 												{
													"annotation" : "",
													"comment" : "Message from Empatica E4",
													"hint" : "",
													"id" : "obj-122",
													"index" : 1,
													"maxclass" : "inlet",
													"numinlets" : 0,
													"numoutlets" : 1,
													"outlettype" : [ "" ],
													"patching_rect" : [ 50.0, 40.0, 30.0, 30.0 ],
													"style" : ""
												}

											}
, 											{
												"box" : 												{
													"annotation" : "",
													"comment" : "Signal name",
													"hint" : "",
													"id" : "obj-123",
													"index" : 1,
													"maxclass" : "outlet",
													"numinlets" : 1,
													"numoutlets" : 0,
													"patching_rect" : [ 135.0, 295.0, 30.0, 30.0 ],
													"style" : ""
												}

											}
, 											{
												"box" : 												{
													"annotation" : "",
													"comment" : "Sample timestamp",
													"hint" : "",
													"id" : "obj-124",
													"index" : 2,
													"maxclass" : "outlet",
													"numinlets" : 1,
													"numoutlets" : 0,
													"patching_rect" : [ 173.0, 295.0, 30.0, 30.0 ],
													"style" : ""
												}

											}
, 											{
												"box" : 												{
													"annotation" : "",
													"comment" : "Value of signal(s) at timestamp",
													"hint" : "",
													"id" : "obj-125",
													"index" : 3,
													"maxclass" : "outlet",
													"numinlets" : 1,
													"numoutlets" : 0,
													"patching_rect" : [ 211.0, 295.0, 30.0, 30.0 ],
													"style" : ""
												}

											}
 ],
										"lines" : [ 											{
												"patchline" : 												{
													"destination" : [ "obj-114", 0 ],
													"source" : [ "obj-106", 1 ]
												}

											}
, 											{
												"patchline" : 												{
													"destination" : [ "obj-123", 0 ],
													"source" : [ "obj-106", 0 ]
												}

											}
, 											{
												"patchline" : 												{
													"destination" : [ "obj-106", 0 ],
													"source" : [ "obj-111", 0 ]
												}

											}
, 											{
												"patchline" : 												{
													"destination" : [ "obj-124", 0 ],
													"source" : [ "obj-114", 0 ]
												}

											}
, 											{
												"patchline" : 												{
													"destination" : [ "obj-125", 0 ],
													"source" : [ "obj-114", 1 ]
												}

											}
, 											{
												"patchline" : 												{
													"destination" : [ "obj-99", 0 ],
													"source" : [ "obj-122", 0 ]
												}

											}
, 											{
												"patchline" : 												{
													"destination" : [ "obj-111", 0 ],
													"source" : [ "obj-99", 2 ]
												}

											}
 ]
									}
,
									"patching_rect" : [ 739.75, 444.586609, 140.5, 22.0 ],
									"saved_object_attributes" : 									{
										"description" : "",
										"digest" : "",
										"globalpatchername" : "",
										"style" : "",
										"tags" : ""
									}
,
									"style" : "",
									"text" : "p SplitEmpaticaSignal"
								}

							}
, 							{
								"box" : 								{
									"id" : "obj-258",
									"maxclass" : "newobj",
									"numinlets" : 2,
									"numoutlets" : 3,
									"outlettype" : [ "bang", "bang", "int" ],
									"patching_rect" : [ 679.0, 309.586609, 40.0, 22.0 ],
									"style" : "",
									"text" : "Uzi"
								}

							}
, 							{
								"box" : 								{
									"id" : "obj-256",
									"maxclass" : "newobj",
									"numinlets" : 1,
									"numoutlets" : 4,
									"outlettype" : [ "", "", "", "" ],
									"patching_rect" : [ 679.0, 381.586609, 91.0, 22.0 ],
									"saved_object_attributes" : 									{
										"embed" : 0
									}
,
									"style" : "",
									"text" : "coll testSignals"
								}

							}
, 							{
								"box" : 								{
									"id" : "obj-252",
									"maxclass" : "newobj",
									"numinlets" : 1,
									"numoutlets" : 4,
									"outlettype" : [ "", "", "", "" ],
									"patching_rect" : [ 700.0, 266.586609, 91.0, 22.0 ],
									"saved_object_attributes" : 									{
										"embed" : 0
									}
,
									"style" : "",
									"text" : "coll testSignals"
								}

							}
, 							{
								"box" : 								{
									"id" : "obj-250",
									"maxclass" : "message",
									"numinlets" : 2,
									"numoutlets" : 1,
									"outlettype" : [ "" ],
									"patching_rect" : [ 252.0, 229.586609, 46.0, 22.0 ],
									"style" : "",
									"text" : "line $1"
								}

							}
, 							{
								"box" : 								{
									"id" : "obj-248",
									"maxclass" : "newobj",
									"numinlets" : 2,
									"numoutlets" : 3,
									"outlettype" : [ "bang", "bang", "int" ],
									"patching_rect" : [ 330.0, 194.586609, 40.0, 22.0 ],
									"style" : "",
									"text" : "Uzi"
								}

							}
, 							{
								"box" : 								{
									"id" : "obj-243",
									"maxclass" : "message",
									"numinlets" : 2,
									"numoutlets" : 1,
									"outlettype" : [ "" ],
									"patching_rect" : [ 889.5, 480.586609, 40.0, 22.0 ],
									"style" : "",
									"text" : "min 2"
								}

							}
, 							{
								"box" : 								{
									"id" : "obj-242",
									"maxclass" : "newobj",
									"numinlets" : 1,
									"numoutlets" : 4,
									"outlettype" : [ "", "", "", "" ],
									"patching_rect" : [ 889.5, 518.586609, 91.0, 22.0 ],
									"saved_object_attributes" : 									{
										"embed" : 0
									}
,
									"style" : "",
									"text" : "coll testSignals"
								}

							}
, 							{
								"box" : 								{
									"id" : "obj-240",
									"maxclass" : "message",
									"numinlets" : 2,
									"numoutlets" : 1,
									"outlettype" : [ "" ],
									"patching_rect" : [ 265.5, 581.586609, 62.0, 22.0 ],
									"style" : "",
									"text" : "renumber"
								}

							}
, 							{
								"box" : 								{
									"id" : "obj-239",
									"maxclass" : "message",
									"numinlets" : 2,
									"numoutlets" : 1,
									"outlettype" : [ "" ],
									"patching_rect" : [ 198.0, 581.586609, 55.0, 22.0 ],
									"style" : "",
									"text" : "sort -1 1"
								}

							}
, 							{
								"box" : 								{
									"id" : "obj-228",
									"maxclass" : "message",
									"numinlets" : 2,
									"numoutlets" : 1,
									"outlettype" : [ "" ],
									"patching_rect" : [ 119.0, 176.586609, 41.0, 22.0 ],
									"style" : "",
									"text" : "query"
								}

							}
, 							{
								"box" : 								{
									"id" : "obj-224",
									"maxclass" : "message",
									"numinlets" : 2,
									"numoutlets" : 1,
									"outlettype" : [ "" ],
									"patching_rect" : [ 79.0, 581.586609, 40.0, 22.0 ],
									"style" : "",
									"text" : "min 2"
								}

							}
, 							{
								"box" : 								{
									"id" : "obj-220",
									"maxclass" : "newobj",
									"numinlets" : 1,
									"numoutlets" : 2,
									"outlettype" : [ "bang", "bang" ],
									"patching_rect" : [ 50.0, 385.586609, 29.5, 22.0 ],
									"style" : "",
									"text" : "b"
								}

							}
, 							{
								"box" : 								{
									"id" : "obj-219",
									"maxclass" : "newobj",
									"numinlets" : 0,
									"numoutlets" : 1,
									"outlettype" : [ "" ],
									"patching_rect" : [ 130.5, 543.586609, 104.0, 22.0 ],
									"style" : "",
									"text" : "r reloadSignalFile"
								}

							}
, 							{
								"box" : 								{
									"id" : "obj-218",
									"maxclass" : "newobj",
									"numinlets" : 0,
									"numoutlets" : 1,
									"outlettype" : [ "" ],
									"patching_rect" : [ 91.5, 385.586609, 104.0, 22.0 ],
									"style" : "",
									"text" : "r reloadSignalFile"
								}

							}
, 							{
								"box" : 								{
									"id" : "obj-216",
									"maxclass" : "newobj",
									"numinlets" : 1,
									"numoutlets" : 0,
									"patching_rect" : [ 159.5, 142.586609, 106.0, 22.0 ],
									"style" : "",
									"text" : "s reloadSignalFile"
								}

							}
, 							{
								"box" : 								{
									"id" : "obj-215",
									"maxclass" : "message",
									"numinlets" : 2,
									"numoutlets" : 1,
									"outlettype" : [ "" ],
									"patching_rect" : [ 130.5, 581.586609, 50.0, 22.0 ],
									"style" : "",
									"text" : "clear"
								}

							}
, 							{
								"box" : 								{
									"id" : "obj-211",
									"maxclass" : "newobj",
									"numinlets" : 2,
									"numoutlets" : 1,
									"outlettype" : [ "int" ],
									"patching_rect" : [ 98.75, 450.586609, 29.5, 22.0 ],
									"style" : "",
									"text" : "+ 1"
								}

							}
, 							{
								"box" : 								{
									"id" : "obj-210",
									"maxclass" : "message",
									"numinlets" : 2,
									"numoutlets" : 1,
									"outlettype" : [ "" ],
									"patching_rect" : [ 91.5, 414.586609, 29.5, 22.0 ],
									"style" : "",
									"text" : "0"
								}

							}
, 							{
								"box" : 								{
									"id" : "obj-208",
									"maxclass" : "newobj",
									"numinlets" : 2,
									"numoutlets" : 1,
									"outlettype" : [ "int" ],
									"patching_rect" : [ 50.0, 450.586609, 29.5, 22.0 ],
									"style" : "",
									"text" : "i 0"
								}

							}
, 							{
								"box" : 								{
									"id" : "obj-207",
									"maxclass" : "newobj",
									"numinlets" : 4,
									"numoutlets" : 1,
									"outlettype" : [ "" ],
									"patching_rect" : [ 50.0, 502.586609, 221.5, 22.0 ],
									"style" : "",
									"text" : "join 4"
								}

							}
, 							{
								"box" : 								{
									"id" : "obj-164",
									"maxclass" : "message",
									"numinlets" : 2,
									"numoutlets" : 1,
									"outlettype" : [ "" ],
									"patching_rect" : [ 50.0, 176.586609, 51.0, 22.0 ],
									"style" : "",
									"text" : "read $1"
								}

							}
, 							{
								"box" : 								{
									"id" : "obj-150",
									"maxclass" : "newobj",
									"numinlets" : 1,
									"numoutlets" : 3,
									"outlettype" : [ "bang", "bang", "bang" ],
									"patching_rect" : [ 123.0, 108.586609, 44.0, 22.0 ],
									"style" : "",
									"text" : "t b b b"
								}

							}
, 							{
								"box" : 								{
									"id" : "obj-135",
									"maxclass" : "newobj",
									"numinlets" : 2,
									"numoutlets" : 2,
									"outlettype" : [ "", "" ],
									"patching_rect" : [ 50.0, 256.586609, 57.0, 22.0 ],
									"style" : "",
									"text" : "route set"
								}

							}
, 							{
								"box" : 								{
									"id" : "obj-131",
									"maxclass" : "newobj",
									"numinlets" : 1,
									"numoutlets" : 3,
									"outlettype" : [ "", "bang", "int" ],
									"patching_rect" : [ 50.0, 217.586609, 110.0, 22.0 ],
									"style" : "",
									"text" : "text @precision 16"
								}

							}
, 							{
								"box" : 								{
									"id" : "obj-126",
									"maxclass" : "newobj",
									"numinlets" : 1,
									"numoutlets" : 3,
									"outlettype" : [ "", "", "" ],
									"patcher" : 									{
										"fileversion" : 1,
										"appversion" : 										{
											"major" : 7,
											"minor" : 3,
											"revision" : 4,
											"architecture" : "x64",
											"modernui" : 1
										}
,
										"rect" : [ 141.0, 109.0, 640.0, 480.0 ],
										"bglocked" : 0,
										"openinpresentation" : 0,
										"default_fontsize" : 12.0,
										"default_fontface" : 0,
										"default_fontname" : "Arial",
										"gridonopen" : 1,
										"gridsize" : [ 15.0, 15.0 ],
										"gridsnaponopen" : 1,
										"objectsnaponopen" : 1,
										"statusbarvisible" : 2,
										"toolbarvisible" : 1,
										"lefttoolbarpinned" : 0,
										"toptoolbarpinned" : 0,
										"righttoolbarpinned" : 0,
										"bottomtoolbarpinned" : 0,
										"toolbars_unpinned_last_save" : 0,
										"tallnewobj" : 0,
										"boxanimatetime" : 200,
										"enablehscroll" : 1,
										"enablevscroll" : 1,
										"devicewidth" : 0.0,
										"description" : "",
										"digest" : "",
										"tags" : "",
										"style" : "",
										"subpatcher_template" : "",
										"boxes" : [ 											{
												"box" : 												{
													"id" : "obj-114",
													"maxclass" : "newobj",
													"numinlets" : 2,
													"numoutlets" : 2,
													"outlettype" : [ "", "" ],
													"patching_rect" : [ 173.0, 213.0, 57.0, 22.0 ],
													"style" : "",
													"text" : "zl.slice 1"
												}

											}
, 											{
												"box" : 												{
													"id" : "obj-111",
													"maxclass" : "newobj",
													"numinlets" : 1,
													"numoutlets" : 1,
													"outlettype" : [ "" ],
													"patching_rect" : [ 135.0, 138.0, 73.0, 22.0 ],
													"style" : "",
													"text" : "fromsymbol"
												}

											}
, 											{
												"box" : 												{
													"id" : "obj-106",
													"maxclass" : "newobj",
													"numinlets" : 2,
													"numoutlets" : 2,
													"outlettype" : [ "", "" ],
													"patching_rect" : [ 135.0, 174.0, 57.0, 22.0 ],
													"style" : "",
													"text" : "zl.slice 1"
												}

											}
, 											{
												"box" : 												{
													"id" : "obj-99",
													"maxclass" : "newobj",
													"numinlets" : 1,
													"numoutlets" : 5,
													"outlettype" : [ "", "", "", "", "" ],
													"patching_rect" : [ 50.0, 100.0, 189.0, 22.0 ],
													"style" : "",
													"text" : "regexp (E4_\\\\w+)([\\\\-\\\\w\\\\s\\\\t\\\\d.]+)"
												}

											}
, 											{
												"box" : 												{
													"annotation" : "",
													"comment" : "Message from Empatica E4",
													"hint" : "",
													"id" : "obj-122",
													"index" : 1,
													"maxclass" : "inlet",
													"numinlets" : 0,
													"numoutlets" : 1,
													"outlettype" : [ "" ],
													"patching_rect" : [ 50.0, 40.0, 30.0, 30.0 ],
													"style" : ""
												}

											}
, 											{
												"box" : 												{
													"annotation" : "",
													"comment" : "Signal name",
													"hint" : "",
													"id" : "obj-123",
													"index" : 1,
													"maxclass" : "outlet",
													"numinlets" : 1,
													"numoutlets" : 0,
													"patching_rect" : [ 135.0, 295.0, 30.0, 30.0 ],
													"style" : ""
												}

											}
, 											{
												"box" : 												{
													"annotation" : "",
													"comment" : "Sample timestamp",
													"hint" : "",
													"id" : "obj-124",
													"index" : 2,
													"maxclass" : "outlet",
													"numinlets" : 1,
													"numoutlets" : 0,
													"patching_rect" : [ 173.0, 295.0, 30.0, 30.0 ],
													"style" : ""
												}

											}
, 											{
												"box" : 												{
													"annotation" : "",
													"comment" : "Value of signal(s) at timestamp",
													"hint" : "",
													"id" : "obj-125",
													"index" : 3,
													"maxclass" : "outlet",
													"numinlets" : 1,
													"numoutlets" : 0,
													"patching_rect" : [ 211.0, 295.0, 30.0, 30.0 ],
													"style" : ""
												}

											}
 ],
										"lines" : [ 											{
												"patchline" : 												{
													"destination" : [ "obj-114", 0 ],
													"source" : [ "obj-106", 1 ]
												}

											}
, 											{
												"patchline" : 												{
													"destination" : [ "obj-123", 0 ],
													"source" : [ "obj-106", 0 ]
												}

											}
, 											{
												"patchline" : 												{
													"destination" : [ "obj-106", 0 ],
													"source" : [ "obj-111", 0 ]
												}

											}
, 											{
												"patchline" : 												{
													"destination" : [ "obj-124", 0 ],
													"source" : [ "obj-114", 0 ]
												}

											}
, 											{
												"patchline" : 												{
													"destination" : [ "obj-125", 0 ],
													"source" : [ "obj-114", 1 ]
												}

											}
, 											{
												"patchline" : 												{
													"destination" : [ "obj-99", 0 ],
													"source" : [ "obj-122", 0 ]
												}

											}
, 											{
												"patchline" : 												{
													"destination" : [ "obj-111", 0 ],
													"source" : [ "obj-99", 2 ]
												}

											}
 ]
									}
,
									"patching_rect" : [ 50.0, 299.586609, 127.0, 22.0 ],
									"saved_object_attributes" : 									{
										"description" : "",
										"digest" : "",
										"globalpatchername" : "",
										"style" : "",
										"tags" : ""
									}
,
									"style" : "",
									"text" : "p SplitEmpaticaSignal"
								}

							}
, 							{
								"box" : 								{
									"id" : "obj-253",
									"maxclass" : "message",
									"numinlets" : 2,
									"numoutlets" : 1,
									"outlettype" : [ "" ],
									"patching_rect" : [ 700.0, 236.586609, 50.0, 22.0 ],
									"style" : "",
									"text" : "length"
								}

							}
, 							{
								"box" : 								{
									"comment" : "",
									"id" : "obj-296",
									"index" : 1,
									"maxclass" : "inlet",
									"numinlets" : 0,
									"numoutlets" : 1,
									"outlettype" : [ "" ],
									"patching_rect" : [ 50.0, 40.0, 30.0, 30.0 ],
									"style" : ""
								}

							}
, 							{
								"box" : 								{
									"comment" : "",
									"id" : "obj-297",
									"index" : 1,
									"maxclass" : "outlet",
									"numinlets" : 1,
									"numoutlets" : 0,
									"patching_rect" : [ 679.0, 744.586609, 30.0, 30.0 ],
									"style" : ""
								}

							}
 ],
						"lines" : [ 							{
								"patchline" : 								{
									"destination" : [ "obj-207", 3 ],
									"source" : [ "obj-126", 2 ]
								}

							}
, 							{
								"patchline" : 								{
									"destination" : [ "obj-207", 2 ],
									"source" : [ "obj-126", 1 ]
								}

							}
, 							{
								"patchline" : 								{
									"destination" : [ "obj-207", 1 ],
									"order" : 0,
									"source" : [ "obj-126", 0 ]
								}

							}
, 							{
								"patchline" : 								{
									"destination" : [ "obj-220", 0 ],
									"order" : 1,
									"source" : [ "obj-126", 0 ]
								}

							}
, 							{
								"patchline" : 								{
									"destination" : [ "obj-135", 0 ],
									"source" : [ "obj-131", 0 ]
								}

							}
, 							{
								"patchline" : 								{
									"destination" : [ "obj-150", 0 ],
									"source" : [ "obj-131", 1 ]
								}

							}
, 							{
								"patchline" : 								{
									"destination" : [ "obj-248", 1 ],
									"source" : [ "obj-131", 2 ]
								}

							}
, 							{
								"patchline" : 								{
									"destination" : [ "obj-126", 0 ],
									"source" : [ "obj-135", 0 ]
								}

							}
, 							{
								"patchline" : 								{
									"destination" : [ "obj-216", 0 ],
									"source" : [ "obj-150", 2 ]
								}

							}
, 							{
								"patchline" : 								{
									"destination" : [ "obj-228", 0 ],
									"source" : [ "obj-150", 1 ]
								}

							}
, 							{
								"patchline" : 								{
									"destination" : [ "obj-248", 0 ],
									"source" : [ "obj-150", 0 ]
								}

							}
, 							{
								"patchline" : 								{
									"destination" : [ "obj-131", 0 ],
									"source" : [ "obj-164", 0 ]
								}

							}
, 							{
								"patchline" : 								{
									"destination" : [ "obj-4", 0 ],
									"source" : [ "obj-207", 0 ]
								}

							}
, 							{
								"patchline" : 								{
									"destination" : [ "obj-207", 0 ],
									"order" : 1,
									"source" : [ "obj-208", 0 ]
								}

							}
, 							{
								"patchline" : 								{
									"destination" : [ "obj-211", 0 ],
									"order" : 0,
									"source" : [ "obj-208", 0 ]
								}

							}
, 							{
								"patchline" : 								{
									"destination" : [ "obj-208", 1 ],
									"source" : [ "obj-210", 0 ]
								}

							}
, 							{
								"patchline" : 								{
									"destination" : [ "obj-208", 1 ],
									"source" : [ "obj-211", 0 ]
								}

							}
, 							{
								"patchline" : 								{
									"destination" : [ "obj-4", 0 ],
									"source" : [ "obj-215", 0 ]
								}

							}
, 							{
								"patchline" : 								{
									"destination" : [ "obj-210", 0 ],
									"source" : [ "obj-218", 0 ]
								}

							}
, 							{
								"patchline" : 								{
									"destination" : [ "obj-215", 0 ],
									"source" : [ "obj-219", 0 ]
								}

							}
, 							{
								"patchline" : 								{
									"destination" : [ "obj-208", 0 ],
									"source" : [ "obj-220", 0 ]
								}

							}
, 							{
								"patchline" : 								{
									"destination" : [ "obj-4", 0 ],
									"source" : [ "obj-224", 0 ]
								}

							}
, 							{
								"patchline" : 								{
									"destination" : [ "obj-131", 0 ],
									"source" : [ "obj-228", 0 ]
								}

							}
, 							{
								"patchline" : 								{
									"destination" : [ "obj-4", 0 ],
									"source" : [ "obj-239", 0 ]
								}

							}
, 							{
								"patchline" : 								{
									"destination" : [ "obj-4", 0 ],
									"source" : [ "obj-240", 0 ]
								}

							}
, 							{
								"patchline" : 								{
									"destination" : [ "obj-267", 1 ],
									"source" : [ "obj-242", 0 ]
								}

							}
, 							{
								"patchline" : 								{
									"destination" : [ "obj-242", 0 ],
									"source" : [ "obj-243", 0 ]
								}

							}
, 							{
								"patchline" : 								{
									"destination" : [ "obj-250", 0 ],
									"source" : [ "obj-248", 2 ]
								}

							}
, 							{
								"patchline" : 								{
									"destination" : [ "obj-286", 0 ],
									"source" : [ "obj-248", 1 ]
								}

							}
, 							{
								"patchline" : 								{
									"destination" : [ "obj-131", 0 ],
									"source" : [ "obj-250", 0 ]
								}

							}
, 							{
								"patchline" : 								{
									"destination" : [ "obj-258", 1 ],
									"source" : [ "obj-252", 0 ]
								}

							}
, 							{
								"patchline" : 								{
									"destination" : [ "obj-252", 0 ],
									"source" : [ "obj-253", 0 ]
								}

							}
, 							{
								"patchline" : 								{
									"destination" : [ "obj-266", 0 ],
									"source" : [ "obj-256", 0 ]
								}

							}
, 							{
								"patchline" : 								{
									"destination" : [ "obj-271", 0 ],
									"source" : [ "obj-258", 2 ]
								}

							}
, 							{
								"patchline" : 								{
									"destination" : [ "obj-267", 0 ],
									"source" : [ "obj-266", 1 ]
								}

							}
, 							{
								"patchline" : 								{
									"destination" : [ "obj-268", 3 ],
									"source" : [ "obj-266", 2 ]
								}

							}
, 							{
								"patchline" : 								{
									"destination" : [ "obj-268", 1 ],
									"order" : 0,
									"source" : [ "obj-266", 0 ]
								}

							}
, 							{
								"patchline" : 								{
									"destination" : [ "obj-285", 0 ],
									"order" : 1,
									"source" : [ "obj-266", 0 ]
								}

							}
, 							{
								"patchline" : 								{
									"destination" : [ "obj-268", 2 ],
									"order" : 0,
									"source" : [ "obj-267", 0 ]
								}

							}
, 							{
								"patchline" : 								{
									"destination" : [ "obj-8", 0 ],
									"order" : 1,
									"source" : [ "obj-267", 0 ]
								}

							}
, 							{
								"patchline" : 								{
									"destination" : [ "obj-297", 0 ],
									"source" : [ "obj-268", 0 ]
								}

							}
, 							{
								"patchline" : 								{
									"destination" : [ "obj-256", 0 ],
									"source" : [ "obj-271", 0 ]
								}

							}
, 							{
								"patchline" : 								{
									"destination" : [ "obj-9", 0 ],
									"source" : [ "obj-285", 0 ]
								}

							}
, 							{
								"patchline" : 								{
									"destination" : [ "obj-287", 0 ],
									"source" : [ "obj-286", 2 ]
								}

							}
, 							{
								"patchline" : 								{
									"destination" : [ "obj-288", 0 ],
									"source" : [ "obj-286", 1 ]
								}

							}
, 							{
								"patchline" : 								{
									"destination" : [ "obj-290", 0 ],
									"source" : [ "obj-286", 0 ]
								}

							}
, 							{
								"patchline" : 								{
									"destination" : [ "obj-295", 0 ],
									"source" : [ "obj-291", 0 ]
								}

							}
, 							{
								"patchline" : 								{
									"destination" : [ "obj-293", 0 ],
									"source" : [ "obj-292", 0 ]
								}

							}
, 							{
								"patchline" : 								{
									"destination" : [ "obj-239", 0 ],
									"source" : [ "obj-293", 1 ]
								}

							}
, 							{
								"patchline" : 								{
									"destination" : [ "obj-240", 0 ],
									"source" : [ "obj-293", 0 ]
								}

							}
, 							{
								"patchline" : 								{
									"destination" : [ "obj-243", 0 ],
									"source" : [ "obj-294", 0 ]
								}

							}
, 							{
								"patchline" : 								{
									"destination" : [ "obj-253", 0 ],
									"source" : [ "obj-295", 1 ]
								}

							}
, 							{
								"patchline" : 								{
									"destination" : [ "obj-258", 0 ],
									"source" : [ "obj-295", 0 ]
								}

							}
, 							{
								"patchline" : 								{
									"destination" : [ "obj-164", 0 ],
									"source" : [ "obj-296", 0 ]
								}

							}
, 							{
								"patchline" : 								{
									"destination" : [ "obj-9", 1 ],
									"source" : [ "obj-8", 0 ]
								}

							}
, 							{
								"patchline" : 								{
									"destination" : [ "obj-268", 0 ],
									"source" : [ "obj-9", 0 ]
								}

							}
 ]
					}
,
					"patching_rect" : [ 89.0, 87.413391, 167.0, 22.0 ],
					"saved_object_attributes" : 					{
						"description" : "",
						"digest" : "",
						"globalpatchername" : "",
						"style" : "",
						"tags" : ""
					}
,
					"style" : "",
					"text" : "p ProcessEmpaticaSignalFile"
				}

			}
, 			{
				"box" : 				{
					"id" : "obj-214",
					"maxclass" : "newobj",
					"numinlets" : 1,
					"numoutlets" : 4,
					"outlettype" : [ "", "", "", "" ],
					"patching_rect" : [ 89.0, 126.0, 129.0, 22.0 ],
					"saved_object_attributes" : 					{
						"embed" : 0
					}
,
					"style" : "",
					"text" : "coll testSignalsZeroed"
				}

			}
, 			{
				"box" : 				{
					"id" : "obj-129",
					"maxclass" : "dropfile",
					"numinlets" : 1,
					"numoutlets" : 2,
					"outlettype" : [ "", "" ],
					"patching_rect" : [ 89.0, 28.0, 33.0, 42.0 ]
				}

			}
 ],
		"lines" : [ 			{
				"patchline" : 				{
					"destination" : [ "obj-298", 0 ],
					"source" : [ "obj-129", 0 ]
				}

			}
, 			{
				"patchline" : 				{
					"destination" : [ "obj-214", 0 ],
					"source" : [ "obj-298", 0 ]
				}

			}
, 			{
				"patchline" : 				{
					"destination" : [ "obj-470", 0 ],
					"source" : [ "obj-441", 0 ]
				}

			}
, 			{
				"patchline" : 				{
					"destination" : [ "obj-470", 1 ],
					"source" : [ "obj-444", 0 ]
				}

			}
, 			{
				"patchline" : 				{
					"destination" : [ "obj-470", 2 ],
					"source" : [ "obj-451", 0 ]
				}

			}
, 			{
				"patchline" : 				{
					"destination" : [ "obj-472", 0 ],
					"source" : [ "obj-470", 0 ]
				}

			}
, 			{
				"patchline" : 				{
					"destination" : [ "obj-485", 2 ],
					"source" : [ "obj-472", 2 ]
				}

			}
, 			{
				"patchline" : 				{
					"destination" : [ "obj-485", 1 ],
					"source" : [ "obj-472", 1 ]
				}

			}
, 			{
				"patchline" : 				{
					"destination" : [ "obj-485", 0 ],
					"source" : [ "obj-472", 0 ]
				}

			}
, 			{
				"patchline" : 				{
					"destination" : [ "obj-1", 0 ],
					"source" : [ "obj-485", 0 ]
				}

			}
, 			{
				"patchline" : 				{
					"destination" : [ "obj-1", 1 ],
					"source" : [ "obj-6", 0 ]
				}

			}
 ],
		"dependency_cache" : [ 			{
				"name" : "SplitEmpaticaSignal.maxpat",
				"bootpath" : "~/Desktop/EiM2017/EmpaticaMaxMSPClient",
				"patcherrelativepath" : ".",
				"type" : "JSON",
				"implicit" : 1
			}
, 			{
				"name" : "SendEmpaticaSignalsToEiM.maxpat",
				"bootpath" : "~/Desktop/EiM2017/EmpaticaMaxMSPClient",
				"patcherrelativepath" : ".",
				"type" : "JSON",
				"implicit" : 1
			}
 ],
		"autosave" : 0
	}

}
